# This file uses centimeters as units for non-parametric coordinates.

mtllib Bottom.mtl
g default
v 17.180954 11.266046 -0.000938
v 1.623375 11.266046 -0.000938
v 17.180954 11.266046 1.284383
v 1.623375 11.266046 1.284383
v 17.180954 -14.610736 1.284383
v 1.623375 -14.610736 1.284383
v 17.180954 -14.610736 -0.000938
v 1.623375 -14.610736 -0.000938
v 17.180954 11.266046 0.230414
v 17.180954 -14.610736 0.230414
v 1.623375 -14.610736 0.230414
v 1.623375 11.266046 0.230414
v 17.576405 11.923783 -0.006833
v 1.227924 11.923783 -0.006833
v 1.227924 11.923783 0.236284
v 17.576405 11.923783 0.236284
v 17.576405 -15.268474 0.236284
v 1.227924 -15.268474 0.236284
v 1.227924 -15.268474 -0.006833
v 17.576405 -15.268474 -0.006833
v 17.273636 -14.610736 1.055540
v 17.273636 11.266046 1.055540
v 1.623375 11.266046 1.055540
v 1.623375 -14.610736 1.055540
v 17.273636 -14.610736 0.900428
v 17.273636 11.266046 0.900428
v 1.623375 11.266046 0.900428
v 1.623375 -14.610736 0.900428
v 17.180954 -14.610736 0.734575
v 17.180954 11.266046 0.734575
v 1.623375 11.266046 0.734575
v 1.623375 -14.610736 0.734575
v 17.134916 -14.610736 0.562096
v 17.134916 11.266046 0.562096
v 1.623375 11.266046 0.562096
v 1.623375 -14.610736 0.562096
v 17.134916 -14.610736 0.371836
v 17.134916 11.266046 0.371836
v 1.623375 11.266046 0.371836
v 1.623375 -14.610736 0.371836
vt 0.375000 0.000000
vt 0.625000 0.000000
vt 0.625000 0.045000
vt 0.375000 0.045000
vt 0.375000 0.250000
vt 0.625000 0.250000
vt 0.625000 0.500000
vt 0.375000 0.500000
vt 0.375000 0.704990
vt 0.625000 0.704990
vt 0.625000 0.750000
vt 0.375000 0.750000
vt 0.375000 0.750000
vt 0.625000 0.750000
vt 0.625000 1.000000
vt 0.375000 1.000000
vt 0.625000 0.000000
vt 0.875000 0.000000
vt 0.875000 0.045000
vt 0.625000 0.045000
vt 0.125000 0.000000
vt 0.125000 0.045000
vt 0.125000 0.205480
vt 0.375000 0.205480
vt 0.125000 0.250000
vt 0.625000 0.544510
vt 0.375000 0.544510
vt 0.625000 0.205480
vt 0.875000 0.205480
vt 0.875000 0.250000
vt 0.375000 0.000000
vt 0.375000 0.045000
vt 0.375000 0.704990
vt 0.625000 0.704990
vt 0.125000 0.000000
vt 0.125000 0.045000
vt 0.125000 0.175310
vt 0.375000 0.175310
vt 0.625000 0.175310
vt 0.875000 0.175310
vt 0.625000 0.574680
vt 0.375000 0.574680
vt 0.125000 0.143060
vt 0.375000 0.143060
vt 0.625000 0.143060
vt 0.875000 0.143060
vt 0.625000 0.606930
vt 0.375000 0.606930
vt 0.125000 0.109510
vt 0.375000 0.109510
vt 0.625000 0.109510
vt 0.875000 0.109510
vt 0.625000 0.640480
vt 0.375000 0.640480
vt 0.125000 0.072510
vt 0.375000 0.072510
vt 0.625000 0.072510
vt 0.875000 0.072510
vt 0.625000 0.677480
vt 0.375000 0.677480
vn 0.000000 1.000000 0.000000
vn 0.000000 1.000000 0.000000
vn 0.000000 1.000000 0.000000
vn 0.000000 1.000000 0.000000
vn 0.000000 0.000000 1.000000
vn 0.000000 0.000000 1.000000
vn 0.000000 0.000000 1.000000
vn 0.000000 0.000000 1.000000
vn 0.000000 -1.000000 0.000000
vn 0.000000 -1.000000 0.000000
vn 0.000000 -1.000000 0.000000
vn 0.000000 -1.000000 0.000000
vn -0.004968 0.002987 -0.999983
vn 0.000000 0.004481 -0.999990
vn 0.000000 -0.004481 -0.999990
vn -0.004968 -0.002987 -0.999983
vn -1.000000 0.000000 0.000000
vn -1.000000 0.000000 0.000000
vn -1.000000 0.000000 0.000000
vn -1.000000 0.000000 0.000000
vn 1.000000 -0.000000 0.000000
vn 1.000000 -0.000000 0.000000
vn 1.000000 -0.000000 0.000000
vn 1.000000 -0.000000 0.000000
vn 0.981547 -0.000000 0.191219
vn 0.981547 -0.000000 0.191219
vn 0.926871 -0.000000 0.375380
vn 0.926871 -0.000000 0.375380
vn 0.000000 -1.000000 0.000000
vn 0.000000 -1.000000 0.000000
vn 0.000000 -1.000000 0.000000
vn 0.000000 -1.000000 0.000000
vn -1.000000 0.000000 0.000000
vn -1.000000 0.000000 0.000000
vn -1.000000 0.000000 0.000000
vn -1.000000 0.000000 0.000000
vn 0.000000 1.000000 0.000000
vn 0.000000 1.000000 0.000000
vn 0.000000 1.000000 0.000000
vn 0.000000 1.000000 0.000000
vn -0.004968 -0.002987 -0.999983
vn 0.000000 -0.004481 -0.999990
vn 0.000000 -0.008962 -0.999960
vn -0.007453 -0.004481 -0.999962
vn -0.857028 -0.515270 0.000000
vn -0.857028 -0.515270 0.000000
vn -0.857028 -0.515270 0.000000
vn -0.857028 -0.515270 0.000000
vn 0.000000 -0.008925 0.999960
vn -0.007422 -0.004462 0.999963
vn -0.007422 -0.004462 0.999963
vn 0.000000 -0.008925 0.999960
vn -0.007422 0.004462 0.999963
vn 0.000000 0.008925 0.999960
vn 0.000000 0.008925 0.999960
vn -0.007422 0.004462 0.999963
vn -0.857027 0.515271 0.000000
vn -0.857027 0.515271 0.000000
vn -0.857027 0.515271 0.000000
vn -0.857027 0.515271 0.000000
vn 0.000000 0.004481 -0.999990
vn -0.004968 0.002987 -0.999983
vn -0.007453 0.004481 -0.999962
vn 0.000000 0.008962 -0.999960
vn -0.004968 0.002987 -0.999983
vn -0.004968 -0.002987 -0.999983
vn -0.007453 -0.004481 -0.999962
vn -0.007453 0.004481 -0.999962
vn -0.007422 -0.004462 0.999963
vn -0.007422 0.004462 0.999963
vn -0.007422 0.004462 0.999963
vn -0.007422 -0.004462 0.999963
vn 0.967716 0.000000 -0.252044
vn 0.967716 0.000000 -0.252044
vn 0.981547 -0.000000 0.191219
vn 0.981547 -0.000000 0.191219
vn 0.000000 1.000000 0.000000
vn 0.000000 1.000000 0.000000
vn 0.000000 1.000000 0.000000
vn 0.000000 1.000000 0.000000
vn -1.000000 0.000000 0.000000
vn -1.000000 0.000000 0.000000
vn -1.000000 0.000000 0.000000
vn -1.000000 0.000000 0.000000
vn 0.000000 -1.000000 0.000000
vn 0.000000 -1.000000 0.000000
vn 0.000000 -1.000000 0.000000
vn 0.000000 -1.000000 0.000000
vn 0.926719 0.000000 -0.375754
vn 0.926719 0.000000 -0.375754
vn 0.967716 0.000000 -0.252044
vn 0.967716 0.000000 -0.252044
vn 0.000000 1.000000 0.000000
vn 0.000000 1.000000 0.000000
vn 0.000000 1.000000 0.000000
vn 0.000000 1.000000 0.000000
vn -1.000000 0.000000 0.000000
vn -1.000000 0.000000 0.000000
vn -1.000000 0.000000 0.000000
vn -1.000000 0.000000 0.000000
vn 0.000000 -1.000000 0.000000
vn 0.000000 -1.000000 0.000000
vn 0.000000 -1.000000 0.000000
vn 0.000000 -1.000000 0.000000
vn 0.991508 0.000000 -0.130049
vn 0.991508 0.000000 -0.130049
vn 0.926719 0.000000 -0.375754
vn 0.926719 0.000000 -0.375754
vn 0.000000 1.000000 0.000000
vn 0.000000 1.000000 0.000000
vn 0.000000 1.000000 0.000000
vn 0.000000 1.000000 0.000000
vn -1.000000 0.000000 0.000000
vn -1.000000 0.000000 0.000000
vn -1.000000 0.000000 0.000000
vn -1.000000 0.000000 0.000000
vn 0.000000 -1.000000 0.000000
vn 0.000000 -1.000000 0.000000
vn 0.000000 -1.000000 0.000000
vn 0.000000 -1.000000 0.000000
vn 0.987645 -0.000000 0.156709
vn 0.987645 -0.000000 0.156709
vn 0.991508 0.000000 -0.130049
vn 0.991508 0.000000 -0.130049
vn 0.000000 1.000000 0.000000
vn 0.000000 1.000000 0.000000
vn 0.000000 1.000000 0.000000
vn 0.000000 1.000000 0.000000
vn -1.000000 0.000000 0.000000
vn -1.000000 0.000000 0.000000
vn -1.000000 0.000000 0.000000
vn -1.000000 0.000000 0.000000
vn 0.000000 -1.000000 0.000000
vn 0.000000 -1.000000 0.000000
vn 0.000000 -1.000000 0.000000
vn 0.000000 -1.000000 0.000000
vn 0.950885 -0.000000 0.309546
vn 0.950885 -0.000000 0.309546
vn 0.987645 -0.000000 0.156709
vn 0.987645 -0.000000 0.156709
vn 0.000000 1.000000 0.000000
vn 0.000000 1.000000 0.000000
vn 0.000000 1.000000 0.000000
vn 0.000000 1.000000 0.000000
vn -1.000000 0.000000 0.000000
vn -1.000000 0.000000 0.000000
vn -1.000000 0.000000 0.000000
vn -1.000000 0.000000 0.000000
vn 0.000000 -1.000000 0.000000
vn 0.000000 -1.000000 0.000000
vn 0.000000 -1.000000 0.000000
vn 0.000000 -1.000000 0.000000
s off
g Bottom:Mesh
usemtl Bottom:Bottom_2_blinnSG
f 13/1/1 14/2/2 15/3/3 16/4/4
f 3/5/5 4/6/6 6/7/7 5/8/8
f 17/9/9 18/10/10 19/11/11 20/12/12
f 7/13/13 8/14/14 2/15/15 1/16/16
f 2/17/17 8/18/18 11/19/19 12/20/20
f 20/21/21 13/1/22 16/4/23 17/22/24
f 21/23/25 22/24/26 3/5/27 5/25/28
f 5/8/29 6/7/30 24/26/31 21/27/32
f 23/28/33 24/29/34 6/30/35 4/6/36
f 22/24/37 23/28/38 4/6/39 3/5/40
f 1/31/41 2/17/42 14/2/43 13/1/44
f 2/17/45 12/20/46 15/3/47 14/2/48
f 12/20/49 9/32/50 16/4/51 15/3/52
f 10/33/53 11/34/54 18/10/55 17/9/56
f 11/34/57 8/14/58 19/11/59 18/10/60
f 8/14/61 7/13/62 20/12/63 19/11/64
f 7/35/65 1/31/66 13/1/67 20/21/68
f 9/32/69 10/36/70 17/22/71 16/4/72
f 25/37/73 26/38/74 22/24/75 21/23/76
f 26/38/77 27/39/78 23/28/79 22/24/80
f 27/39/81 28/40/82 24/29/83 23/28/84
f 21/27/85 24/26/86 28/41/87 25/42/88
f 29/43/89 30/44/90 26/38/91 25/37/92
f 30/44/93 31/45/94 27/39/95 26/38/96
f 31/45/97 32/46/98 28/40/99 27/39/100
f 25/42/101 28/41/102 32/47/103 29/48/104
f 33/49/105 34/50/106 30/44/107 29/43/108
f 34/50/109 35/51/110 31/45/111 30/44/112
f 35/51/113 36/52/114 32/46/115 31/45/116
f 29/48/117 32/47/118 36/53/119 33/54/120
f 37/55/121 38/56/122 34/50/123 33/49/124
f 38/56/125 39/57/126 35/51/127 34/50/128
f 39/57/129 40/58/130 36/52/131 35/51/132
f 33/54/133 36/53/134 40/59/135 37/60/136
f 10/36/137 9/32/138 38/56/139 37/55/140
f 9/32/141 12/20/142 39/57/143 38/56/144
f 12/20/145 11/19/146 40/58/147 39/57/148
f 37/60/149 40/59/150 11/34/151 10/33/152
