# This file uses centimeters as units for non-parametric coordinates.

mtllib Lomo.mtl
g default
v 0.132442 -15.232206 -0.659035
v -0.191739 -15.232206 -0.613948
v -0.484156 -15.232206 -0.483049
v -0.716239 -15.232206 -0.279197
v -0.865236 -15.232206 -0.022318
v -0.916583 -15.232206 0.262402
v 1.181442 -15.232206 0.262402
v 1.130119 -15.232206 -0.022318
v 0.981097 -15.232206 -0.279197
v 0.749039 -15.232206 -0.483073
v 0.456597 -15.232206 -0.613948
v 0.132442 11.902153 -0.659035
v -0.191739 11.902153 -0.613948
v -0.484156 11.902153 -0.483049
v -0.716239 11.902153 -0.279197
v -0.865236 11.902153 -0.022318
v -0.916583 11.902153 0.262402
v 1.181442 11.902153 0.262402
v 1.130119 11.902153 -0.022318
v 0.981097 11.902153 -0.279197
v 0.749039 11.902153 -0.483073
v 0.456597 11.902153 -0.613948
v 0.132442 11.544456 -0.982752
v -0.284104 11.544456 -0.911798
v -0.659874 11.544456 -0.705900
v -0.958089 11.544456 -0.385203
v -1.149567 11.544456 0.018872
v -1.215528 11.544456 0.466815
v 1.480363 11.544456 0.466815
v 1.414426 11.544456 0.018872
v 1.222948 11.544456 -0.385203
v 0.924733 11.544456 -0.705900
v 0.548963 11.544456 -0.911798
v 0.132442 -14.850956 -0.982752
v -0.284104 -14.850956 -0.911798
v -0.659874 -14.850956 -0.705900
v -0.958089 -14.850956 -0.385203
v -1.149567 -14.850956 0.018872
v -1.215528 -14.850956 0.466815
v 1.480363 -14.850956 0.466815
v 1.414426 -14.850956 0.018872
v 1.222948 -14.850956 -0.385203
v 0.924733 -14.850956 -0.705900
v 0.548963 -14.850956 -0.911798
vt 0.663200 0.429540
vt 0.660890 0.304120
vt 0.659850 0.581030
vt 0.648640 0.597400
vt 0.670020 0.773120
vt 0.620480 0.624540
vt 0.608960 0.591200
vt 0.606470 0.617820
vt 0.607590 0.652320
vt 0.592850 0.618050
vt 0.601580 0.998040
vt 0.586190 0.622960
vt 0.671310 0.588670
vt 0.671980 0.589240
vt 0.694830 0.604690
vt 0.694310 0.604070
vt 0.670590 0.588180
vt 0.692580 0.602190
vt 0.670150 0.587900
vt 0.688160 0.597510
vt 0.669450 0.587370
vt 0.677800 0.588880
vt 0.659990 0.580660
vt 0.643840 0.591020
vt 0.618290 0.606590
vt 0.594870 0.615350
vt 0.575330 0.630940
vt 0.572800 0.635690
vt 0.694730 0.604530
vt 0.694480 0.604230
vt 0.693540 0.602930
vt 0.688510 0.597790
vt 0.676720 0.586280
vt 0.660960 0.212650
vt 0.507710 0.113250
vt 0.305370 0.104690
vt 0.172440 0.233010
vt 0.177060 0.370630
vt 0.386180 0.847980
vt 0.707420 0.618580
vt 0.786130 0.683970
vt 0.813230 0.700990
vt 0.772020 0.454400
vt 0.763900 0.345360
vt 0.660890 0.120480
vt 0.380370 0.001950
vt 0.103680 0.134310
vt 0.029510 0.447050
vt 0.215450 0.771720
vt 0.739250 0.943420
vt 0.897850 0.698950
vt 0.998040 0.637080
vt 0.913530 0.370110
vn 0.275917 0.000000 0.961181
vn -0.000005 0.000000 1.000000
vn -0.000005 0.000000 1.000000
vn 0.275917 0.000000 0.961181
vn 0.540316 0.000000 0.841462
vn 0.275917 0.000000 0.961181
vn 0.275917 0.000000 0.961181
vn 0.540316 0.000000 0.841462
vn 0.772621 0.000000 0.634868
vn 0.540316 0.000000 0.841462
vn 0.540316 0.000000 0.841462
vn 0.772621 0.000000 0.634868
vn 0.938680 0.000000 0.344790
vn 0.772621 0.000000 0.634868
vn 0.772621 0.000000 0.634868
vn 0.938680 0.000000 0.344790
vn 0.984125 0.000000 0.177477
vn 0.938680 0.000000 0.344790
vn 0.938680 0.000000 0.344790
vn 0.984125 0.000000 0.177477
vn -0.938682 0.000000 0.344784
vn -0.984140 0.000000 0.177396
vn -0.984140 0.000000 0.177396
vn -0.938682 0.000000 0.344784
vn -0.772634 0.000000 0.634852
vn -0.938682 0.000000 0.344784
vn -0.938682 0.000000 0.344784
vn -0.772634 0.000000 0.634852
vn -0.540320 0.000000 0.841460
vn -0.772634 0.000000 0.634852
vn -0.772634 0.000000 0.634852
vn -0.540320 0.000000 0.841460
vn -0.275874 0.000000 0.961194
vn -0.540320 0.000000 0.841460
vn -0.540320 0.000000 0.841460
vn -0.275874 0.000000 0.961194
vn -0.000005 0.000000 1.000000
vn -0.275874 0.000000 0.961194
vn -0.275874 0.000000 0.961194
vn -0.000005 0.000000 1.000000
vn -0.233962 0.651358 -0.721799
vn 0.000004 0.664441 -0.747341
vn 0.000004 0.664441 -0.747341
vn -0.233962 0.651358 -0.721799
vn -0.460806 0.618336 -0.636647
vn -0.233962 0.651358 -0.721799
vn -0.233962 0.651358 -0.721799
vn -0.460806 0.618336 -0.636647
vn -0.653353 0.587018 -0.478058
vn -0.460806 0.618336 -0.636647
vn -0.460806 0.618336 -0.636647
vn -0.653353 0.587018 -0.478058
vn -0.766173 0.590597 -0.253327
vn -0.653353 0.587018 -0.478058
vn -0.653353 0.587018 -0.478058
vn -0.766173 0.590597 -0.253327
vn -0.789638 0.600405 -0.126431
vn -0.766173 0.590597 -0.253327
vn -0.766173 0.590597 -0.253327
vn -0.789638 0.600405 -0.126431
vn 0.766190 0.590580 -0.253317
vn 0.789661 0.600386 -0.126381
vn 0.789661 0.600386 -0.126381
vn 0.766190 0.590580 -0.253317
vn 0.653372 0.586994 -0.478063
vn 0.766190 0.590580 -0.253317
vn 0.766190 0.590580 -0.253317
vn 0.653372 0.586994 -0.478063
vn 0.460817 0.618316 -0.636658
vn 0.653372 0.586994 -0.478063
vn 0.653372 0.586994 -0.478063
vn 0.460817 0.618316 -0.636658
vn 0.233954 0.651346 -0.721813
vn 0.460817 0.618316 -0.636658
vn 0.460817 0.618316 -0.636658
vn 0.233954 0.651346 -0.721813
vn 0.000004 0.664441 -0.747341
vn 0.233954 0.651346 -0.721813
vn 0.233954 0.651346 -0.721813
vn 0.000004 0.664441 -0.747341
vn -0.328759 0.000000 -0.944414
vn 0.000005 0.000000 -1.000000
vn 0.000005 0.000000 -1.000000
vn -0.328759 0.000000 -0.944414
vn -0.614287 0.000000 -0.789083
vn -0.328759 0.000000 -0.944414
vn -0.328759 0.000000 -0.944414
vn -0.614287 0.000000 -0.789083
vn -0.827696 0.000000 -0.561177
vn -0.614287 0.000000 -0.789083
vn -0.614287 0.000000 -0.789083
vn -0.827696 0.000000 -0.561177
vn -0.956987 0.000000 -0.290131
vn -0.827696 0.000000 -0.561177
vn -0.827696 0.000000 -0.561177
vn -0.956987 0.000000 -0.290131
vn -0.989331 0.000000 -0.145683
vn -0.956987 0.000000 -0.290131
vn -0.956987 0.000000 -0.290131
vn -0.989331 0.000000 -0.145683
vn 0.956995 0.000000 -0.290106
vn 0.989339 0.000000 -0.145630
vn 0.989339 0.000000 -0.145630
vn 0.956995 0.000000 -0.290106
vn 0.827696 0.000000 -0.561176
vn 0.956995 0.000000 -0.290106
vn 0.956995 0.000000 -0.290106
vn 0.827696 0.000000 -0.561176
vn 0.614287 0.000000 -0.789083
vn 0.827696 0.000000 -0.561176
vn 0.827696 0.000000 -0.561176
vn 0.614287 0.000000 -0.789083
vn 0.328763 0.000000 -0.944412
vn 0.614287 0.000000 -0.789083
vn 0.614287 0.000000 -0.789083
vn 0.328763 0.000000 -0.944412
vn 0.000005 0.000000 -1.000000
vn 0.328763 0.000000 -0.944412
vn 0.328763 0.000000 -0.944412
vn 0.000005 0.000000 -1.000000
vn -0.240012 -0.627273 -0.740894
vn 0.000004 -0.640552 -0.767915
vn 0.000004 -0.640552 -0.767915
vn -0.240012 -0.627273 -0.740894
vn -0.471560 -0.593920 -0.651836
vn -0.240012 -0.627273 -0.740894
vn -0.240012 -0.627273 -0.740894
vn -0.471560 -0.593920 -0.651836
vn -0.667196 -0.562488 -0.488320
vn -0.471560 -0.593920 -0.651836
vn -0.471560 -0.593920 -0.651836
vn -0.667196 -0.562488 -0.488320
vn -0.782726 -0.566073 -0.258651
vn -0.667196 -0.562488 -0.488320
vn -0.667196 -0.562488 -0.488320
vn -0.782726 -0.566073 -0.258651
vn -0.807254 -0.575878 -0.129252
vn -0.782726 -0.566073 -0.258651
vn -0.782726 -0.566073 -0.258651
vn -0.807254 -0.575878 -0.129252
vn 0.782743 -0.566056 -0.258640
vn 0.807275 -0.575859 -0.129202
vn 0.807275 -0.575859 -0.129202
vn 0.782743 -0.566056 -0.258640
vn 0.667214 -0.562464 -0.488324
vn 0.782743 -0.566056 -0.258640
vn 0.782743 -0.566056 -0.258640
vn 0.667214 -0.562464 -0.488324
vn 0.471569 -0.593900 -0.651848
vn 0.667214 -0.562464 -0.488324
vn 0.667214 -0.562464 -0.488324
vn 0.471569 -0.593900 -0.651848
vn 0.240003 -0.627261 -0.740907
vn 0.471569 -0.593900 -0.651848
vn 0.471569 -0.593900 -0.651848
vn 0.240003 -0.627261 -0.740907
vn 0.000004 -0.640552 -0.767915
vn 0.240003 -0.627261 -0.740907
vn 0.240003 -0.627261 -0.740907
vn 0.000004 -0.640552 -0.767915
vn 0.564440 0.000000 0.825474
vn 0.564440 0.000000 0.825474
vn 0.564440 0.000000 0.825474
vn 0.564440 0.000000 0.825474
vn -0.564472 0.000000 0.825452
vn -0.564472 0.000000 0.825452
vn -0.564472 0.000000 0.825452
vn -0.564472 0.000000 0.825452
s off
g Lomo:Mesh
usemtl Lomo:Lomo_1_blinnSG
f 2/1/1 1/2/2 12/3/3 13/4/4
f 3/5/5 2/1/6 13/4/7 14/6/8
f 4/7/9 3/5/10 14/6/11 15/8/12
f 5/9/13 4/7/14 15/8/15 16/10/16
f 6/11/17 5/9/18 16/10/19 17/12/20
f 8/13/21 7/14/22 18/15/23 19/16/24
f 9/17/25 8/13/26 19/16/27 20/18/28
f 10/19/29 9/17/30 20/18/31 21/20/32
f 11/21/33 10/19/34 21/20/35 22/22/36
f 1/2/37 11/21/38 22/22/39 12/3/40
f 13/4/41 12/3/42 23/23/43 24/24/44
f 14/6/45 13/4/46 24/24/47 25/25/48
f 15/8/49 14/6/50 25/25/51 26/26/52
f 16/10/53 15/8/54 26/26/55 27/27/56
f 17/12/57 16/10/58 27/27/59 28/28/60
f 19/16/61 18/15/62 29/29/63 30/30/64
f 20/18/65 19/16/66 30/30/67 31/31/68
f 21/20/69 20/18/70 31/31/71 32/32/72
f 22/22/73 21/20/74 32/32/75 33/33/76
f 12/3/77 22/22/78 33/33/79 23/23/80
f 24/24/81 23/23/82 34/34/83 35/35/84
f 25/25/85 24/24/86 35/35/87 36/36/88
f 26/26/89 25/25/90 36/36/91 37/37/92
f 27/27/93 26/26/94 37/37/95 38/38/96
f 28/28/97 27/27/98 38/38/99 39/39/100
f 30/30/101 29/29/102 40/40/103 41/41/104
f 31/31/105 30/30/106 41/41/107 42/42/108
f 32/32/109 31/31/110 42/42/111 43/43/112
f 33/33/113 32/32/114 43/43/115 44/44/116
f 23/23/117 33/33/118 44/44/119 34/34/120
f 35/35/121 34/34/122 1/45/123 2/46/124
f 36/36/125 35/35/126 2/46/127 3/47/128
f 37/37/129 36/36/130 3/47/131 4/48/132
f 38/38/133 37/37/134 4/48/135 5/49/136
f 39/39/137 38/38/138 5/49/139 6/11/140
f 41/41/141 40/40/142 7/14/143 8/50/144
f 42/42/145 41/41/146 8/50/147 9/51/148
f 43/43/149 42/42/150 9/51/151 10/52/152
f 44/44/153 43/43/154 10/52/155 11/53/156
f 34/34/157 44/44/158 11/53/159 1/45/160
f 17/12/161 28/28/162 39/39/163 6/11/164
f 18/15/165 7/14/166 40/40/167 29/29/168
