# This file uses centimeters as units for non-parametric coordinates.

mtllib Top.mtl
g default
v -16.998682 -14.605589 -0.158721
v -1.441007 -14.605589 -0.158721
v -16.998682 -14.605589 1.126649
v -1.441007 -14.605589 1.126649
v -16.998682 11.271314 1.126649
v -1.441007 11.271314 1.126649
v -16.998682 11.271314 -0.158721
v -1.441007 11.271314 -0.158721
v -16.998682 -14.605589 0.072656
v -16.998682 11.271314 0.072656
v -1.441007 11.271314 0.072656
v -1.441007 -14.605589 0.072656
v -17.394110 -15.263328 -0.164615
v -1.045555 -15.263328 -0.164615
v -1.045555 -15.263328 0.078526
v -17.394110 -15.263328 0.078526
v -17.394110 11.929052 0.078526
v -1.045555 11.929052 0.078526
v -1.045555 11.929052 -0.164615
v -17.394110 11.929052 -0.164615
v -16.998682 -14.605589 0.173376
v -16.998682 11.271314 0.173376
v -1.441007 11.271314 0.233613
v -1.441007 -14.605589 0.233613
v -17.018169 -14.605589 0.348680
v -17.018169 11.271314 0.348680
v -1.441007 11.271314 0.348680
v -1.441007 -14.605589 0.348680
v -16.998682 -14.605589 0.566391
v -16.998682 11.271314 0.566391
v -1.441007 11.271314 0.566391
v -1.441007 -14.605589 0.566391
v -16.954960 -14.605589 0.747371
v -16.954960 11.271314 0.747371
v -1.441007 11.271314 0.747371
v -1.441007 -14.605589 0.747371
v -17.033075 -14.605589 0.473758
v -17.033075 11.271314 0.473758
v -1.441007 11.271314 0.473758
v -1.441007 -14.605589 0.473758
v -17.013176 -14.605589 1.031896
v -17.013176 11.271314 1.031896
v -1.441007 11.271314 1.031896
v -1.441007 -14.605589 1.031896
v -16.954960 -14.605589 0.895297
v -16.954960 11.271314 0.895297
v -1.441007 11.271314 0.895297
v -1.441007 -14.605589 0.895297
v -16.755640 -14.202708 -0.150269
v -1.421618 -14.201952 -0.150269
v -1.299584 -14.839254 -0.338848
v -17.138790 -14.840010 -0.338824
v -16.755640 10.868434 -0.150269
v -1.421618 10.867679 -0.150269
v -17.138790 11.505735 -0.338824
v -1.299584 11.504980 -0.338848
vt 0.980250 0.826160
vt 0.509910 0.887030
vt 0.513010 0.893320
vt 0.986010 0.829190
vt 0.026480 0.817830
vt 0.478740 0.829340
vt 0.502520 0.080450
vt 0.045130 0.068560
vt 0.965220 0.079290
vt 0.544140 0.022220
vt 0.539900 0.026460
vt 0.959930 0.082430
vt 0.924630 0.120950
vt 0.533090 0.065580
vt 0.508200 0.846020
vt 0.941120 0.789460
vt 0.526430 0.065010
vt 0.501510 0.846000
vt 0.021270 0.052120
vt 0.001950 0.833250
vt 0.004260 0.831780
vt 0.023520 0.053690
vt 0.522790 0.067370
vt 0.498030 0.843440
vt 0.948850 0.790960
vt 0.511660 0.855230
vt 0.513150 0.872350
vt 0.970060 0.814090
vt 0.521940 0.915090
vt 0.528550 0.910940
vt 0.998040 0.830970
vt 0.984910 0.070380
vt 0.553840 0.004910
vt 0.547450 0.001950
vt 0.537600 0.057170
vt 0.932080 0.119120
vt 0.951050 0.094870
vt 0.542130 0.039480
vt 0.008140 0.829240
vt 0.027290 0.056370
vt 0.520180 0.069070
vt 0.495550 0.841620
vt 0.010900 0.827440
vt 0.029970 0.058290
vt 0.517350 0.070910
vt 0.492860 0.839640
vt 0.032400 0.059820
vt 0.013390 0.826020
vt 0.017940 0.823300
vt 0.036840 0.062730
vt 0.511140 0.074920
vt 0.515250 0.072270
vt 0.490860 0.838170
vt 0.486950 0.835310
vt 0.021330 0.821150
vt 0.040140 0.065020
vt 0.507780 0.077090
vt 0.483760 0.832970
vt 0.042890 0.067070
vt 0.024180 0.819210
vt 0.504680 0.079080
vt 0.480800 0.830820
vn 0.000000 -1.000000 0.000000
vn 0.000000 -1.000000 0.000000
vn 0.000000 -1.000000 0.000000
vn 0.000000 -1.000000 0.000000
vn 0.000000 0.000000 1.000000
vn 0.000000 0.000000 1.000000
vn 0.000000 0.000000 1.000000
vn 0.000000 0.000000 1.000000
vn 0.000000 1.000000 0.000000
vn 0.000000 1.000000 0.000000
vn 0.000000 1.000000 0.000000
vn 0.000000 1.000000 0.000000
vn 0.000000 0.000000 -1.000000
vn 0.000000 0.000000 -1.000000
vn 0.000000 0.000000 -1.000000
vn 0.000000 0.000000 -1.000000
vn 1.000000 0.000000 0.000000
vn 1.000000 0.000000 0.000000
vn 1.000000 0.000000 0.000000
vn 1.000000 0.000000 0.000000
vn -1.000000 0.000000 0.000000
vn -1.000000 0.000000 0.000000
vn -1.000000 0.000000 0.000000
vn -1.000000 0.000000 0.000000
vn -1.000000 0.000000 0.000000
vn -1.000000 0.000000 0.000000
vn -0.998468 0.000000 -0.055325
vn -0.998468 0.000000 -0.055325
vn 0.000000 1.000000 0.000000
vn 0.000000 1.000000 0.000000
vn 0.000000 1.000000 0.000000
vn 0.000000 1.000000 0.000000
vn 1.000000 0.000000 0.000000
vn 1.000000 0.000000 0.000000
vn 1.000000 0.000000 0.000000
vn 1.000000 0.000000 0.000000
vn 0.000000 -1.000000 0.000000
vn 0.000000 -1.000000 0.000000
vn 0.000000 -1.000000 0.000000
vn 0.000000 -1.000000 0.000000
vn -0.000015 0.283728 -0.958905
vn -0.000015 0.283728 -0.958905
vn -0.000015 0.283728 -0.958905
vn -0.000015 0.283728 -0.958905
vn 0.893717 0.422190 0.151740
vn 0.857028 0.515269 0.000000
vn 0.857028 0.515269 0.000000
vn 0.893717 0.422190 0.151740
vn 0.000000 0.008924 0.999960
vn 0.007422 0.004462 0.999963
vn 0.007422 0.004462 0.999963
vn 0.000000 0.008924 0.999960
vn 0.007422 -0.004462 0.999963
vn 0.000000 -0.008924 0.999960
vn 0.000000 -0.008924 0.999960
vn 0.007422 -0.004462 0.999963
vn 0.857028 -0.515270 0.000000
vn 0.893717 -0.422191 0.151739
vn 0.893717 -0.422191 0.151739
vn 0.857028 -0.515270 0.000000
vn -0.000015 -0.283728 -0.958905
vn -0.000015 -0.283728 -0.958905
vn -0.000015 -0.283728 -0.958905
vn -0.000015 -0.283728 -0.958905
vn 0.441547 0.000000 -0.897238
vn 0.441547 0.000000 -0.897238
vn 0.441547 0.000000 -0.897238
vn 0.441547 0.000000 -0.897238
vn 0.007422 0.004462 0.999963
vn 0.007422 -0.004462 0.999963
vn 0.007422 -0.004462 0.999963
vn 0.007422 0.004462 0.999963
vn -0.998468 0.000000 -0.055325
vn -0.998468 0.000000 -0.055325
vn -0.993434 0.000000 -0.114408
vn -0.993434 0.000000 -0.114408
vn 0.000000 1.000000 0.000000
vn 0.000000 1.000000 0.000000
vn 0.000000 1.000000 0.000000
vn 0.000000 1.000000 0.000000
vn 1.000000 0.000000 0.000000
vn 1.000000 0.000000 0.000000
vn 1.000000 0.000000 0.000000
vn 1.000000 0.000000 0.000000
vn 0.000000 -1.000000 0.000000
vn 0.000000 -1.000000 0.000000
vn 0.000000 -1.000000 0.000000
vn 0.000000 -1.000000 0.000000
vn -0.993434 0.000000 -0.114408
vn -0.993434 0.000000 -0.114408
vn -0.992994 0.000000 0.118169
vn -0.992994 0.000000 0.118169
vn 0.000000 1.000000 0.000000
vn 0.000000 1.000000 0.000000
vn 0.000000 1.000000 0.000000
vn 0.000000 1.000000 0.000000
vn 1.000000 0.000000 0.000000
vn 1.000000 0.000000 0.000000
vn 1.000000 0.000000 0.000000
vn 1.000000 0.000000 0.000000
vn 0.000000 -1.000000 0.000000
vn 0.000000 -1.000000 0.000000
vn 0.000000 -1.000000 0.000000
vn 0.000000 -1.000000 0.000000
vn -0.956432 0.000000 0.291957
vn -0.956432 0.000000 0.291957
vn -0.992985 0.000000 0.118243
vn -0.992985 0.000000 0.118243
vn 0.000000 1.000000 0.000000
vn 0.000000 1.000000 0.000000
vn 0.000000 1.000000 0.000000
vn 0.000000 1.000000 0.000000
vn 1.000000 0.000000 0.000000
vn 1.000000 0.000000 0.000000
vn 1.000000 0.000000 0.000000
vn 1.000000 0.000000 0.000000
vn 0.000000 -1.000000 0.000000
vn 0.000000 -1.000000 0.000000
vn 0.000000 -1.000000 0.000000
vn 0.000000 -1.000000 0.000000
vn -0.992985 0.000000 0.118243
vn -0.992985 0.000000 0.118243
vn -0.979782 0.000000 -0.200071
vn -0.979782 0.000000 -0.200071
vn 0.000000 1.000000 0.000000
vn 0.000000 1.000000 0.000000
vn 0.000000 1.000000 0.000000
vn 0.000000 1.000000 0.000000
vn 1.000000 0.000000 0.000000
vn 1.000000 0.000000 0.000000
vn 1.000000 0.000000 0.000000
vn 1.000000 0.000000 0.000000
vn 0.000000 -1.000000 0.000000
vn 0.000000 -1.000000 0.000000
vn 0.000000 -1.000000 0.000000
vn 0.000000 -1.000000 0.000000
vn -0.992994 0.000000 0.118169
vn -0.992994 0.000000 0.118169
vn -0.956432 0.000000 0.291957
vn -0.956432 0.000000 0.291957
vn 0.000000 1.000000 0.000000
vn 0.000000 1.000000 0.000000
vn 0.000000 1.000000 0.000000
vn 0.000000 1.000000 0.000000
vn 1.000000 0.000000 0.000000
vn 1.000000 0.000000 0.000000
vn 1.000000 0.000000 0.000000
vn 1.000000 0.000000 0.000000
vn 0.000000 -1.000000 0.000000
vn 0.000000 -1.000000 0.000000
vn 0.000000 -1.000000 0.000000
vn 0.000000 -1.000000 0.000000
vn -0.988504 0.000000 0.151196
vn -0.988504 0.000000 0.151196
vn -0.988504 0.000000 0.151196
vn -0.988504 0.000000 0.151196
vn 0.000000 1.000000 0.000000
vn 0.000000 1.000000 0.000000
vn 0.000000 1.000000 0.000000
vn 0.000000 1.000000 0.000000
vn 1.000000 0.000000 0.000000
vn 1.000000 0.000000 0.000000
vn 1.000000 0.000000 0.000000
vn 1.000000 0.000000 0.000000
vn 0.000000 -1.000000 0.000000
vn 0.000000 -1.000000 0.000000
vn 0.000000 -1.000000 0.000000
vn 0.000000 -1.000000 0.000000
vn -0.979782 0.000000 -0.200071
vn -0.979782 0.000000 -0.200071
vn -0.919944 0.000000 -0.392051
vn -0.919944 0.000000 -0.392051
vn 0.000000 1.000000 0.000000
vn 0.000000 1.000000 0.000000
vn 0.000000 1.000000 0.000000
vn 0.000000 1.000000 0.000000
vn 1.000000 0.000000 0.000000
vn 1.000000 0.000000 0.000000
vn 1.000000 0.000000 0.000000
vn 1.000000 0.000000 0.000000
vn 0.000000 -1.000000 0.000000
vn 0.000000 -1.000000 0.000000
vn 0.000000 -1.000000 0.000000
vn 0.000000 -1.000000 0.000000
vn -0.017381 -0.010480 0.999794
vn 0.000001 -0.020955 0.999780
vn 0.000001 -0.020955 0.999780
vn -0.017381 -0.010480 0.999794
vn 0.893717 0.422190 0.151740
vn 0.893717 0.422190 0.151740
vn 0.900882 0.315164 0.298468
vn 0.900882 0.315164 0.298468
vn 0.000008 -0.380296 -0.924865
vn 0.000008 -0.380296 -0.924865
vn 0.000008 -0.380296 -0.924865
vn 0.000008 -0.380296 -0.924865
vn 0.000001 0.020956 0.999780
vn -0.017381 0.010480 0.999794
vn -0.017381 0.010480 0.999794
vn 0.000001 0.020956 0.999780
vn 0.000008 0.380298 -0.924864
vn 0.000008 0.380298 -0.924864
vn 0.000008 0.380298 -0.924864
vn 0.000008 0.380298 -0.924864
vn 0.893717 -0.422191 0.151739
vn 0.893717 -0.422191 0.151739
vn 0.900883 -0.315165 0.298466
vn 0.900883 -0.315165 0.298466
vn -0.017381 0.010480 0.999794
vn -0.017381 -0.010480 0.999794
vn -0.017381 -0.010480 0.999794
vn -0.017381 0.010480 0.999794
vn -0.563616 0.000000 -0.826037
vn -0.563616 0.000000 -0.826037
vn -0.563616 0.000000 -0.826037
vn -0.563616 0.000000 -0.826037
s off
g Top:Mesh
usemtl Top:Top_1_blinnSG
f 13/1/1 14/2/2 15/3/3 16/4/4
f 3/5/5 4/6/6 6/7/7 5/8/8
f 17/9/9 18/10/10 19/11/11 20/12/12
f 7/13/13 8/14/14 2/15/15 1/16/16
f 2/15/17 8/14/18 11/17/19 12/18/20
f 20/12/21 13/1/22 16/4/23 17/9/24
f 10/19/25 9/20/26 21/21/27 22/22/28
f 22/22/29 23/23/30 11/17/31 10/19/32
f 12/18/33 11/17/34 23/23/35 24/24/36
f 9/20/37 12/18/38 24/24/39 21/21/40
f 49/25/41 50/26/42 51/27/43 52/28/44
f 2/29/45 12/30/46 15/3/47 14/2/48
f 12/30/49 9/31/50 16/4/51 15/3/52
f 10/32/53 11/33/54 18/10/55 17/9/56
f 11/33/57 8/34/58 19/11/59 18/10/60
f 54/35/61 53/36/62 55/37/63 56/38/64
f 53/36/65 49/25/66 52/28/67 55/37/68
f 9/31/69 10/32/70 17/9/71 16/4/72
f 22/22/73 21/21/74 25/39/75 26/40/76
f 26/40/77 27/41/78 23/23/79 22/22/80
f 24/24/81 23/23/82 27/41/83 28/42/84
f 21/21/85 24/24/86 28/42/87 25/39/88
f 26/40/89 25/39/90 37/43/91 38/44/92
f 38/44/93 39/45/94 27/41/95 26/40/96
f 28/42/97 27/41/98 39/45/99 40/46/100
f 25/39/101 28/42/102 40/46/103 37/43/104
f 30/47/105 29/48/106 33/49/107 34/50/108
f 34/50/109 35/51/110 31/52/111 30/47/112
f 32/53/113 31/52/114 35/51/115 36/54/116
f 29/48/117 32/53/118 36/54/119 33/49/120
f 34/50/121 33/49/122 45/55/123 46/56/124
f 46/56/125 47/57/126 35/51/127 34/50/128
f 36/54/129 35/51/130 47/57/131 48/58/132
f 33/49/133 36/54/134 48/58/135 45/55/136
f 38/44/137 37/43/138 29/48/139 30/47/140
f 30/47/141 31/52/142 39/45/143 38/44/144
f 40/46/145 39/45/146 31/52/147 32/53/148
f 37/43/149 40/46/150 32/53/151 29/48/152
f 42/59/153 41/60/154 3/5/155 5/8/156
f 5/8/157 6/7/158 43/61/159 42/59/160
f 44/62/161 43/61/162 6/7/163 4/6/164
f 41/60/165 44/62/166 4/6/167 3/5/168
f 46/56/169 45/55/170 41/60/171 42/59/172
f 42/59/173 43/61/174 47/57/175 46/56/176
f 48/58/177 47/57/178 43/61/179 44/62/180
f 45/55/181 48/58/182 44/62/183 41/60/184
f 1/16/185 2/15/186 50/26/187 49/25/188
f 2/15/189 14/2/190 51/27/191 50/26/192
f 14/2/193 13/1/194 52/28/195 51/27/196
f 8/14/197 7/13/198 53/36/199 54/35/200
f 20/12/201 19/11/202 56/38/203 55/37/204
f 19/11/205 8/14/206 54/35/207 56/38/208
f 7/13/209 1/16/210 49/25/211 53/36/212
f 13/1/213 20/12/214 55/37/215 52/28/216
